<svg width="1920" height="216" viewBox="0 0 1920 216" fill="none" xmlns="http://www.w3.org/2000/svg">
<path d="M0 197.945V215.15H155.827C300.125 215.15 372.273 149.168 372.273 17.2047V0H216.446C72.1486 0 0 65.9818 0 197.945ZM181.81 172.116H60.5957C60.5957 91.7889 103.885 48.7542 190.463 43.0117H311.678C311.678 123.338 268.388 166.373 181.81 172.116Z" fill="white"/>
<path d="M466.384 215.173H526.979V129.104H674.153C783.815 129.104 838.657 86.0692 838.657 0H466.384V215.173ZM770.605 43.0346C758.707 71.7243 732.333 86.0692 691.483 86.0692H526.979V43.0346H770.605Z" fill="white"/>
<path d="M929.689 43.0346H1085.54V215.173H1146.14V43.0346H1301.96V0H929.689V43.0346Z" fill="white"/>
<path d="M1456.67 0H1396.07V215.173H1456.67V0Z" fill="white"/>
<path d="M1738.19 43.0346H1920V0H1764.17C1619.88 0 1547.73 65.9818 1547.73 197.945V215.15H1920V172.116H1608.32C1608.32 91.7889 1651.61 48.7542 1738.19 43.0117V43.0346Z" fill="white"/>
</svg>
